HIERARCHY
ROOT joint_Root
{
	OFFSET 0.0 0.0 0.0
	CHANNELS 6 Xposition Yposition Zposition Zrotation Xrotation Yrotation 
	JOINT Hips
	{
		OFFSET -17.1583 93.1646 452.98
		CHANNELS 6 Xposition Yposition Zposition Zrotation Xrotation Yrotation 
		JOINT Spine
		{
			OFFSET 15.7357 0.0 0.0
			CHANNELS 6 Xposition Yposition Zposition Zrotation Xrotation Yrotation 
			JOINT Chest
			{
				OFFSET 8.98455 -0.406207 0.0
				CHANNELS 6 Xposition Yposition Zposition Zrotation Xrotation Yrotation 
				JOINT Neck
				{
					OFFSET 16.3773 0.0 0.0
					CHANNELS 6 Xposition Yposition Zposition Zrotation Xrotation Yrotation 
					JOINT Head
					{
						OFFSET 6.45672 0.0 0.0
						CHANNELS 6 Xposition Yposition Zposition Zrotation Xrotation Yrotation 
						End Site
						{
							OFFSET 0.0 0.0 0.0
						}
					}
				}
				JOINT Shoulder_L
				{
					OFFSET 12.9942 -0.242716 4.98039
					CHANNELS 6 Xposition Yposition Zposition Zrotation Xrotation Yrotation 
					JOINT UpperArm_L
					{
						OFFSET 5.34809 0.0 0.0
						CHANNELS 6 Xposition Yposition Zposition Zrotation Xrotation Yrotation 
						JOINT LowerArm_L
						{
							OFFSET 24.3286 1.87007e-05 0.0
							CHANNELS 6 Xposition Yposition Zposition Zrotation Xrotation Yrotation 
							JOINT Hand_L
							{
								OFFSET 22.2916 0.0 0.0
								CHANNELS 6 Xposition Yposition Zposition Zrotation Xrotation Yrotation 
								End Site
								{
									OFFSET 0.0 0.0 0.0
								}
							}
						}
					}
				}
				JOINT Shoulder_R
				{
					OFFSET 12.9945 -0.242716 -4.98039
					CHANNELS 6 Xposition Yposition Zposition Zrotation Xrotation Yrotation 
					JOINT UpperArm_R
					{
						OFFSET -5.34813 0.0 0.0
						CHANNELS 6 Xposition Yposition Zposition Zrotation Xrotation Yrotation 
						JOINT LowerArm_R
						{
							OFFSET -24.3289 0.000322201 0.0
							CHANNELS 6 Xposition Yposition Zposition Zrotation Xrotation Yrotation 
							JOINT Hand_R
							{
								OFFSET -22.2915 -0.000108084 0.0
								CHANNELS 6 Xposition Yposition Zposition Zrotation Xrotation Yrotation 
								End Site
								{
									OFFSET 0.0 0.0 0.0
								}
							}
						}
					}
				}
			}
		}
		JOINT UpperLeg_L
		{
			OFFSET -2.19248 -6.46944 0.0
			CHANNELS 6 Xposition Yposition Zposition Zrotation Xrotation Yrotation 
			JOINT LowerLeg_L
			{
				OFFSET 39.0811 0.0 -1.23785e-05
				CHANNELS 6 Xposition Yposition Zposition Zrotation Xrotation Yrotation 
				JOINT Foot_L
				{
					OFFSET 40.9854 0.0 -1.26872e-05
					CHANNELS 6 Xposition Yposition Zposition Zrotation Xrotation Yrotation 
					JOINT Toes_L
					{
						OFFSET 11.7543 0.0 0.0
						CHANNELS 6 Xposition Yposition Zposition Zrotation Xrotation Yrotation 
						End Site
						{
							OFFSET 0.0 0.0 0.0
						}
					}
				}
			}
		}
		JOINT UpperLeg_R
		{
			OFFSET -2.19251 6.46944 0.0
			CHANNELS 6 Xposition Yposition Zposition Zrotation Xrotation Yrotation 
			JOINT LowerLeg_R
			{
				OFFSET -39.0811 -0.00228153 -0.0401928
				CHANNELS 6 Xposition Yposition Zposition Zrotation Xrotation Yrotation 
				JOINT Foot_R
				{
					OFFSET -40.9854 0.0 0.0
					CHANNELS 6 Xposition Yposition Zposition Zrotation Xrotation Yrotation 
					JOINT Toes_R
					{
						OFFSET -11.7543 0.0 0.0
						CHANNELS 6 Xposition Yposition Zposition Zrotation Xrotation Yrotation 
						End Site
						{
							OFFSET 0.0 0.0 0.0
						}
					}
				}
			}
		}
	}
}
MOTION
Frames:	5
Frame Time:	0.0333333
0.000000 0.000000 0.000000 0.000000 0.000000 -0.000000 -0.867379 92.730500 1.909490 88.095000 3.277080 4.066040 15.735700 0.000005 -0.000001 96.108300 86.277300 -101.597000 8.984550 -0.406207 -0.000000 -0.282787 1.176650 -10.968200 16.377300 -0.000001 -0.000001 -2.272220 -2.715740 -4.062280 6.456720 -0.000001 -0.000000 3.089290 -1.338250 -11.193000 12.994200 -0.242716 4.980390 -92.343000 7.016130 -71.480800 5.348090 -0.000007 -0.000001 -59.990600 -6.635730 0.595780 24.328600 0.000019 0.000005 11.554900 25.590300 -25.329900 22.291600 -0.000001 0.000005 1.356380 4.914500 9.087450 12.994500 -0.242716 -4.980390 92.668000 -5.419510 -63.739000 -5.348130 -0.000001 -0.000004 -42.146600 -66.737700 -85.617900 -24.328900 0.000322 -0.000009 5.256600 8.321270 -32.449300 -22.291500 -0.000108 -0.000004 52.400600 5.660060 -16.067200 -2.192480 -6.469440 -0.000000 -172.928000 -3.123640 1.811260 39.081100 -0.000007 -0.000012 -0.026706 0.085927 17.264900 40.985400 -0.000006 -0.000013 -0.240638 15.039900 -69.830400 11.754300 -0.000000 0.000003 -0.003113 0.209506 -8.075460 -2.192510 6.469440 -0.000001 176.321000 9.551590 -175.026000 -39.081100 -0.002282 -0.040193 0.003774 -0.001809 13.730600 -40.985400 0.000008 0.000006 -7.180980 5.614010 -69.175600 -11.754300 -0.000006 -0.000006 -0.011654 0.283275 -5.061110
0.000000 0.000000 0.000000 0.000000 0.000000 -0.000000 -0.884367 92.722300 1.863060 88.037800 3.325440 4.210730 15.735700 0.000005 -0.000001 97.363200 86.124200 -102.943000 8.984550 -0.406207 -0.000000 0.013070 1.369740 -11.153900 16.377300 -0.000001 -0.000001 -2.406120 -2.633240 -4.478050 6.456720 -0.000001 -0.000000 2.801130 -1.564690 -11.056100 12.994200 -0.242716 4.980390 -92.350800 7.032280 -71.463000 5.348090 -0.000007 -0.000001 -60.318000 -6.104580 0.338970 24.328600 0.000019 0.000005 11.503300 25.649500 -25.180500 22.291600 -0.000001 0.000005 1.087270 4.912630 9.124940 12.994500 -0.242716 -4.980390 92.574200 -5.263300 -63.890300 -5.348130 -0.000001 -0.000004 -48.206900 -65.526200 -88.483900 -24.328900 0.000322 -0.000009 2.152920 3.663610 -30.478300 -22.291500 -0.000108 -0.000004 52.940400 5.652450 -15.255900 -2.192480 -6.469440 -0.000000 -172.878000 -2.969040 1.814760 39.081100 -0.000007 -0.000012 -0.027715 0.088222 17.439900 40.985400 -0.000006 -0.000013 -0.244864 14.959200 -69.847200 11.754300 -0.000000 0.000003 -0.003030 0.208577 -8.113260 -2.192510 6.469440 -0.000001 176.339000 9.826150 -174.943000 -39.081100 -0.002282 -0.040193 0.004543 -0.004929 13.802500 -40.985400 0.000008 0.000006 -6.990940 5.818570 -69.147800 -11.754300 -0.000006 -0.000006 -0.011548 0.282528 -5.091700
0.000000 0.000000 0.000000 0.000000 0.000000 -0.000000 -0.880082 92.716100 1.846090 87.990500 3.350290 4.287850 15.735700 0.000005 -0.000001 98.707900 86.044000 -104.390000 8.984550 -0.406207 -0.000000 0.158463 1.573720 -11.359800 16.377300 -0.000001 -0.000001 -2.485410 -2.448580 -4.866250 6.456720 -0.000001 -0.000000 2.714170 -1.597750 -11.260100 12.994200 -0.242716 4.980390 -92.394300 7.133570 -71.391900 5.348090 -0.000007 -0.000001 -60.412400 -5.843890 0.328455 24.328600 0.000019 0.000005 11.510200 25.800400 -25.073700 22.291600 -0.000001 0.000005 0.827282 4.916190 9.053370 12.994500 -0.242716 -4.980390 92.531200 -5.221530 -64.092100 -5.348130 -0.000001 -0.000004 -52.020500 -64.329500 -88.461000 -24.328900 0.000322 -0.000009 -0.381258 -0.727482 -27.621200 -22.291500 -0.000108 -0.000004 53.597800 5.641490 -14.253100 -2.192480 -6.469440 -0.000000 -172.846000 -2.880670 1.801630 39.081100 -0.000007 -0.000012 -0.029421 0.092929 17.567600 40.985400 -0.000006 -0.000013 -0.236432 14.889200 -69.866800 11.754300 -0.000000 0.000003 -0.003370 0.212345 -7.959860 -2.192510 6.469440 -0.000001 176.344000 10.046800 -174.865000 -39.081100 -0.002282 -0.040193 0.005071 -0.007076 13.801400 -40.985400 0.000008 0.000006 -6.833000 5.941930 -69.152700 -11.754300 -0.000006 -0.000006 -0.011371 0.281283 -5.142680
0.000000 0.000000 0.000000 0.000000 0.000000 -0.000000 -0.845306 92.721300 1.844200 87.988700 3.418890 4.274330 15.735700 0.000005 -0.000001 99.476000 86.011100 -105.287000 8.984550 -0.406207 -0.000000 0.215735 1.694820 -11.617700 16.377300 -0.000001 -0.000001 -2.528860 -2.091190 -5.437210 6.456720 -0.000001 -0.000000 2.625870 -1.428730 -11.360200 12.994200 -0.242716 4.980390 -92.447900 7.256480 -71.301400 5.348090 -0.000007 -0.000001 -60.399900 -5.990820 0.510672 24.328600 0.000019 0.000005 11.484100 25.855500 -24.978800 22.291600 -0.000001 0.000005 0.809976 4.918760 9.001560 12.994500 -0.242716 -4.980390 92.535900 -5.297320 -64.371900 -5.348130 -0.000001 -0.000004 -52.432400 -63.380100 -84.669300 -24.328900 0.000322 -0.000009 -2.481850 -5.645600 -23.775200 -22.291500 -0.000108 -0.000004 52.996400 5.621170 -12.697400 -2.192480 -6.469440 -0.000000 -172.876000 -2.837530 1.783310 39.081100 -0.000007 -0.000012 -0.029009 0.091694 17.555400 40.985400 -0.000006 -0.000013 -0.207514 14.899100 -69.859000 11.754300 -0.000000 0.000003 -0.003070 0.209027 -8.094930 -2.192510 6.469440 -0.000001 176.326000 10.093300 -174.827000 -39.081100 -0.002282 -0.040193 0.004506 -0.004809 13.715400 -40.985400 0.000008 0.000006 -6.899540 5.931160 -69.097300 -11.754300 -0.000006 -0.000006 -0.011405 0.281519 -5.133030
0.000000 0.000000 0.000000 0.000000 0.000000 -0.000000 -0.795885 92.712900 1.854040 87.986400 3.439380 4.347850 15.735700 0.000005 -0.000001 99.995200 85.971200 -105.932000 8.984550 -0.406207 -0.000000 0.289837 1.784260 -11.870700 16.377300 -0.000001 -0.000001 -2.528590 -1.664520 -6.041770 6.456720 -0.000001 -0.000000 2.577000 -1.150240 -11.454900 12.994200 -0.242716 4.980390 -92.520500 7.389040 -71.104800 5.348090 -0.000007 -0.000001 -60.298500 -6.187040 0.741009 24.328600 0.000019 0.000005 11.424400 25.954000 -24.784400 22.291600 -0.000001 0.000005 0.974076 4.917910 9.018590 12.994500 -0.242716 -4.980390 92.602500 -5.492910 -64.599300 -5.348130 -0.000001 -0.000004 -50.001000 -62.068000 -77.898400 -24.328900 0.000322 -0.000009 -3.973520 -11.598400 -19.059800 -22.291500 -0.000108 -0.000004 50.344600 5.585040 -10.471800 -2.192480 -6.469440 -0.000000 -172.897000 -2.854710 1.816300 39.081100 -0.000007 -0.000012 -0.028279 0.088885 17.648500 40.985400 -0.000006 -0.000013 -0.156670 14.923900 -69.900500 11.754300 -0.000000 0.000003 -0.002979 0.207999 -8.136770 -2.192510 6.469440 -0.000001 176.285000 10.109000 -174.737000 -39.081100 -0.002282 -0.040193 0.004663 -0.005451 13.714300 -40.985400 0.000008 0.000006 -6.816650 5.911960 -69.117000 -11.754300 -0.000006 -0.000006 -0.011340 0.281062 -5.151750
